<?xml version="1.0" encoding="utf-8"?>
<!-- Generator: Adobe Illustrator 16.0.0, SVG Export Plug-In . SVG Version: 6.00 Build 0)  -->
<!DOCTYPE svg PUBLIC "-//W3C//DTD SVG 1.1//EN" "http://www.w3.org/Graphics/SVG/1.1/DTD/svg11.dtd">
<svg version="1.1" id="Layer_1" xmlns="http://www.w3.org/2000/svg" xmlns:xlink="http://www.w3.org/1999/xlink" x="0px" y="0px"
	 width="37.958px" height="35.984px" viewBox="0 0 37.958 35.984" enable-background="new 0 0 37.958 35.984" xml:space="preserve">
<path fill-rule="evenodd" clip-rule="evenodd" fill="none" d="M23.53,18.011L37.204,5.034c1.005-0.954,1.005-2.501,0-3.455
	l-0.91-0.864c-1.006-0.954-2.636-0.954-3.642,0L18.979,13.692L5.305,0.715c-1.005-0.954-2.635-0.954-3.641,0L0.754,1.579
	c-1.005,0.954-1.005,2.501,0,3.455l13.674,12.977L0.794,30.949c-1.005,0.954-1.005,2.501,0,3.455l0.91,0.864
	c1.006,0.954,2.636,0.954,3.641,0L18.979,22.33l13.634,12.938c1.006,0.954,2.635,0.954,3.641,0l0.91-0.864
	c1.006-0.954,1.006-2.501,0-3.455L23.53,18.011z"/>
</svg>
